<?xml version="1.0" encoding="UTF-8" standalone="no"?><!DOCTYPE svg PUBLIC "-//W3C//DTD SVG 1.1//EN" "http://www.w3.org/Graphics/SVG/1.1/DTD/svg11.dtd"><svg width="100%" height="100%" viewBox="0 0 67 67" version="1.1" xmlns="http://www.w3.org/2000/svg" xmlns:xlink="http://www.w3.org/1999/xlink" xml:space="preserve" xmlns:serif="http://www.serif.com/" style="fill-rule:evenodd;clip-rule:evenodd;stroke-linecap:round;stroke-linejoin:round;stroke-miterlimit:1.5;"><path d="M62.5,18.75l0,29.167c0,8.048 -6.535,14.583 -14.583,14.583l-29.167,0c-8.049,0 -14.583,-6.535 -14.583,-14.583l-0,-29.167c-0,-8.049 6.534,-14.583 14.583,-14.583l29.167,-0c8.048,-0 14.583,6.534 14.583,14.583Z" style="fill:#fefffe;fill-opacity:0.25;"/><path d="M62.5,18.774l0,20.785c0,8.062 -6.545,14.608 -14.608,14.608l-29.118,-0c-8.062,-0 -14.607,-6.546 -14.607,-14.608l-0,-20.785c-0,-8.062 6.545,-14.607 14.607,-14.607l29.118,-0c8.063,-0 14.608,6.545 14.608,14.607Zm-4.167,0c0,-5.762 -4.678,-10.441 -10.441,-10.441l-29.118,0c-5.762,0 -10.441,4.679 -10.441,10.441l0,20.785c0,5.763 4.679,10.441 10.441,10.441l29.118,0c5.763,0 10.441,-4.678 10.441,-10.441l0,-20.785Z" style="fill:#fefffe;"/><path d="M22.917,16.667l-0,16.666" style="fill:none;stroke:#fefffe;stroke-width:4.17px;"/><path d="M43.75,16.667l0,16.666" style="fill:none;stroke:#fefffe;stroke-width:4.17px;"/></svg>