<?xml version="1.0" encoding="UTF-8" standalone="no"?><!DOCTYPE svg PUBLIC "-//W3C//DTD SVG 1.1//EN" "http://www.w3.org/Graphics/SVG/1.1/DTD/svg11.dtd"><svg width="100%" height="100%" viewBox="0 0 67 67" version="1.1" xmlns="http://www.w3.org/2000/svg" xmlns:xlink="http://www.w3.org/1999/xlink" xml:space="preserve" xmlns:serif="http://www.serif.com/" style="fill-rule:evenodd;clip-rule:evenodd;stroke-linecap:round;stroke-linejoin:round;stroke-miterlimit:1.5;"><g id="eyes"><g opacity="0.25"><path d="M4.167,33.333c19.574,-16.738 39.018,-16.699 58.333,0" style="fill:none;stroke:#fefffe;stroke-width:8.33px;"/><path d="M12.5,37.5c14.113,11.092 28.007,11.184 41.667,0" style="fill:none;stroke:#fefffe;stroke-width:8.33px;"/><path d="M33.333,12.5l0,-4.167" style="fill:none;stroke:#fefffe;stroke-width:8.33px;"/><path d="M50,18.75l0,-4.167" style="fill:none;stroke:#fefffe;stroke-width:8.33px;"/><path d="M16.667,18.75l-0,-4.167" style="fill:none;stroke:#fefffe;stroke-width:8.33px;"/><path d="M4.167,33.333c19.519,-16.583 38.963,-16.592 58.333,0c-19.581,16.674 -39.025,16.65 -58.333,0Z" style="fill:#fff;"/><path d="M1.469,30.158c10.641,-9.041 21.319,-13.431 31.92,-13.432c10.609,-0.001 21.253,4.39 31.822,13.443c0.925,0.793 1.457,1.951 1.456,3.17c-0.002,1.219 -0.538,2.376 -1.466,3.167c-10.675,9.09 -21.37,13.494 -31.971,13.491c-10.613,-0.004 -21.246,-4.421 -31.784,-13.508c-0.922,-0.795 -1.45,-1.954 -1.446,-3.171c0.004,-1.217 0.541,-2.372 1.469,-3.16Zm2.698,3.175c19.308,16.65 38.752,16.674 58.333,0c-19.37,-16.592 -38.814,-16.583 -58.333,0Z" style="fill:#fefffe;"/></g><g><path d="M4.167,33.333c19.574,-16.738 39.018,-16.699 58.333,0" style="fill:none;stroke:#fefffe;stroke-width:4.17px;"/><path d="M12.5,37.5c14.113,11.092 28.007,11.184 41.667,0" style="fill:none;stroke:#fefffe;stroke-width:4.17px;"/><path d="M33.333,12.5l0,-4.167" style="fill:none;stroke:#fefffe;stroke-width:4.17px;"/><path d="M50,18.75l0,-4.167" style="fill:none;stroke:#fefffe;stroke-width:4.17px;"/><path d="M16.667,18.75l-0,-4.167" style="fill:none;stroke:#fefffe;stroke-width:4.17px;"/></g></g></svg>