<?xml version="1.0" encoding="UTF-8" standalone="no"?><!DOCTYPE svg PUBLIC "-//W3C//DTD SVG 1.1//EN" "http://www.w3.org/Graphics/SVG/1.1/DTD/svg11.dtd"><svg width="100%" height="100%" viewBox="0 0 67 67" version="1.1" xmlns="http://www.w3.org/2000/svg" xmlns:xlink="http://www.w3.org/1999/xlink" xml:space="preserve" xmlns:serif="http://www.serif.com/" style="fill-rule:evenodd;clip-rule:evenodd;stroke-linecap:round;stroke-linejoin:round;stroke-miterlimit:1.5;"><g id="warning"><path d="M33.333,14.583l22.917,37.5l-45.833,0l22.916,-37.5Z" style="fill:#fff;fill-opacity:0.25;"/><path d="M40.444,10.238l22.917,37.5c1.572,2.572 1.632,5.793 0.157,8.422c-1.474,2.629 -4.254,4.257 -7.268,4.257l-45.833,-0c-3.015,-0 -5.794,-1.628 -7.269,-4.257c-1.474,-2.629 -1.414,-5.85 0.158,-8.422l22.917,-37.5c1.513,-2.477 4.207,-3.988 7.11,-3.988c2.903,0 5.597,1.511 7.111,3.988Zm-7.111,4.345l-22.916,37.5l45.833,0l-22.917,-37.5Z" style="fill:#fefffe;fill-opacity:0.25;"/><path d="M33.333,14.583l22.917,37.5l-45.833,0l22.916,-37.5Z" style="fill:none;stroke:#fefffe;stroke-width:4.17px;"/><path d="M33.333,27.083l0,10.417" style="fill:none;stroke:#fefffe;stroke-width:4.17px;"/><path d="M33.333,45.833l0,-2.083" style="fill:none;stroke:#fefffe;stroke-width:4.17px;"/></g></svg>